<?xml version="1.0" encoding="utf-8"?>
<!-- Generator: Adobe Illustrator 24.2.1, SVG Export Plug-In . SVG Version: 6.00 Build 0)  -->
<svg version="1.1" id="Calque_1" xmlns="http://www.w3.org/2000/svg" xmlns:xlink="http://www.w3.org/1999/xlink" x="0px" y="0px"
	 viewBox="0 0 109.4 208" style="enable-background:new 0 0 109.4 208;" xml:space="preserve">
<path d="M105.8,54.3C105.8,26,82.8,3,54.5,3C26.2,3,3.1,26,3.1,54.3c0,26.3,19.8,48,45.3,51v20.3H22.2v12h26.2v26.2h12v-26.2h26.2
	v-12H60.5v-20.3C85.9,102.3,105.8,80.6,105.8,54.3z M15.1,54.3C15.1,32.6,32.8,15,54.5,15c21.7,0,39.3,17.6,39.3,39.3
	S76.1,93.7,54.5,93.7C32.8,93.7,15.1,76,15.1,54.3z"/>
<path d="M39.1,47.1c2.3-0.5,3.1-2.5,3-4.6c-0.3-4.1-0.3-3.4-0.8-7.6c-0.6-4.9-8.2-3.3-7.6,1.6c0.5,4.1,0.5,3.4,0.8,7.6
	C34.7,46.2,37.2,47.5,39.1,47.1z"/>
<path d="M44,30.1c-0.1,5.1,0.1,5.3,0.5,10.4c0.4,5,8,3.4,7.6-1.5c-0.4-4.4-0.5-3.9-0.4-8.3C51.8,25.7,44.1,25.1,44,30.1z"/>
<path d="M62.2,37.5c0-4.6,0.3-4.4-0.3-9c-0.2-2.1-1.6-3.9-3.9-3.9c-1.9,0-4.1,1.8-3.9,3.9c0.5,4.6,0.3,4.4,0.3,9
	C54.4,42.4,62.1,42.4,62.2,37.5z"/>
<path d="M71.9,30.1c-0.1-2.1-1.4-3.9-3.7-4c-1.9-0.1-4.2,1.6-4,3.7c0.3,4.5-0.1,4.1,0.2,8.5c0.1,2.1,1.4,3.9,3.7,4
	c1.9,0.1,4.2-1.6,4-3.7C71.8,34.2,72.2,34.6,71.9,30.1z"/>
<path d="M40.9,69.3c0.6,0.2,1.2,0.5,1.8,0.7l0,13.8h20.6l0.2-14.4c1-0.5,2-1.2,2.8-2c2.5-2.1,4.4-4.4,5.4-6.5c2.2-5,5-10.7,0.5-13.9
	c-4.8-3.4-13.9-3.4-19.4-1.8c-0.6,0.2-1.2,0.5-1.6,0.9c-3,1.4-2.3,5.6,0.6,6.2c2,0.4,3.5,0.1,7.2,0.3c0,0,4.4-0.4,4.5-0.4
	c-1.3,1-6.2,3-8.1,5.1c-0.5,0.6-1.5,1.6-2.1,2.1c-2.2-3.5-7.2-6.3-10.8-7.4c-2.1-0.7-5.9-2.1-7.2,0.2C31.9,59.2,35,64.9,40.9,69.3z"
	/>
</svg>
